<?xml version="1.0" standalone="no"?>
<svg id="svg1" xmlns="http://www.w3.org/2000/svg" xmlns:xlink="http://www.w3.org/1999/xlink" preserveAspectRatio="xMinYMin meet" viewBox="0 0 696 453" width="100%" height="100%" class="bmndrsvg"><defs><style type="text/css">.svg{shape-rendering:crispEdges}.axis path,.axis line{fill:none;stroke:black;shape-rendering:crispEdges}.axis .minor line{stroke:#777;stroke-dasharray:0,2,4,3}.grid line{fill:none;stroke:#dddddd;stroke-width:1px;shape-rendering:crispEdges}.aura{fill-opacity:0.3;stroke-opacity:0.3;}.aurapast{fill-opacity:0.15;stroke-opacity:0.3}.grid .minor line{stroke:none}.axis text{font-family:sans-serif;font-size:11px;}.axislabel{font-family:sans-serif;font-size:11px;text-anchor:middle}circle.dots{stroke:black}line.roads{stroke:black}.pasttext,.ctxtodaytext,.ctxhortext,.horizontext,.hashtag{text-anchor:middle;font-family:sans-serif}.waterbuf,.waterbux{opacity:0.05882353;text-anchor:middle;font-family:Dejavu Sans,sans-serif}.loading{text-anchor:middle;font-family:Dejavu Sans,sans-serif}.zoomarea{fill:none}circle.ap{stroke:none}circle.rd{stroke:none;pointer-events:none;fill:#ff8080}circle.std{stroke:none;pointer-events:none;fill:#B56bb5}circle.hp{stroke:none;fill:#ffffff}.dp.gra,.ap.gra{fill:#228B22}.dp.grn,.ap.grn{fill:#00aa00}.dp.blu,.ap.blu{fill:#3f3fff}.dp.orn,.ap.orn{fill:#ffa500}.dp.red,.ap.red{fill:#ff0000}.dp.blk,.ap.blk{fill:#000000}.dp.fuda,.ap.fuda{fill-opacity:0.3}.guides{pointer-events:none;fill:none;stroke:#ffff88}.ybhp{pointer-events:none}.rosy{fill:none;stroke:#ff8080;pointer-events:none}.steppy{fill:none;stroke:#B56bb5;pointer-events:none}.steppyppr{fill:none;stroke-opacity:0.8;stroke:#E5BbE5;pointer-events:none}.derails{fill:#ff0000;pointer-events:none}.overlay .textbox{fill:#ffffcc;fill-opacity:0.5;stroke:black;stroke-width:1;pointer-events:none;rx:5;ry:5}</style><style id="dynstyle1" type="text/css">#svg1 .rd {r:4.175px} #svg1 .std {r:5.844px} #svg1 .ap {r:2.922px;pointer-events:none;} #svg1 .hp {r:2.087px;pointer-events:none;} #svg1 .guides {stroke-width:1.67px} #svg1 .rosy {stroke-width:3.34px} #svg1 .steppy {stroke-width:3.34px} #svg1 .steppyppr {stroke-width:3.34px} #svg1 .maxflux {fill:none;stroke:#ffe54c;stroke-width:3.34px} #svg1 .stdflux {fill:none;stroke:#ffe54c;stroke-width:1.67px} #svg1 .axis text {font-size:11px;} #svg1 .axislabel {font-size:11px;} #svg1 .dp {r:4.175px;stroke:rgb(0,0,0);stroke-width:0.835px} #svg1 .dp.fuda {stroke-width:0.417px} #svg1 .razr {fill:none;pointer-events:none;stroke-width:2.505px;stroke:#ff0000} </style><clipPath id="plotclip1"><rect x="0" y="0" width="646" height="398"></rect></clipPath><clipPath id="buttonareaclip1"><rect x="31" y="0" width="646" height="398"></rect></clipPath><path id="rightarrow" d="M 55,0 -35,45 -35,-45 z" style="stroke: none;"></path><path id="downarrow" d="M 0,40 45,-50 -45,-50 z" style="stroke: none;"></path><path id="uparrow" d="M 0,-40 45,50 -45,50 z" style="stroke: none;"></path><pattern id="pinkzonepat1" x="-298.8775205377147" y="0" width="10" height="10" patternTransform="rotate(135)" patternUnits="userSpaceOnUse"><rect x="0" y="0" width="10" height="10" fill="#ffe5e5"></rect><line x1="0" y1="0" x2="0" y2="10" style="stroke: rgb(170, 170, 170); stroke-width: 1;"></line></pattern><pattern id="tapepat1" x="0" y="0" width="20" height="20" patternTransform="rotate(45)" patternUnits="userSpaceOnUse"><rect x="0" y="0" width="20" height="20" fill="#ffffff"></rect><line x1="0" y1="0" x2="20" y2="0" style="stroke: rgb(255, 85, 85); stroke-width: 25;"></line></pattern><g id="removebutton"><circle cx="14" cy="14" r="16" fill="white"></circle><path d="M13.98,0C6.259,0,0,6.261,0,13.983c0,7.721,6.259,13.982,13.98,13.982c7.725,0,13.985-6.262,13.985-13.982C27.965,6.261,21.705,0,13.98,0z M19.992,17.769l-2.227,2.224c0,0-3.523-3.78-3.786-3.78c-0.259,0-3.783,3.78-3.783,3.78l-2.228-2.224c0,0,3.784-3.472,3.784-3.781c0-0.314-3.784-3.787-3.784-3.787l2.228-2.229c0,0,3.553,3.782,3.783,3.782c0.232,0,3.786-3.782,3.786-3.782l2.227,2.229c0,0-3.785,3.523-3.785,3.787C16.207,14.239,19.992,17.769,19.992,17.769z"></path></g><g id="zoominbtn"></g><g id="zoomoutbtn"></g><g id="beye"><ellipse cx="56.5" cy="60" rx="23" ry="53" fill="red"></ellipse><path d="M41 7h15a23 53 0 0 1 0 106H41z" fill="#fbb"></path><ellipse cx="41" cy="60" rx="23" ry="53" fill="red"></ellipse><ellipse cx="40" cy="60" rx="17" ry="41" fill="#fff"></ellipse><ellipse cx="39" cy="60" rx="14" ry="31" fill="red"></ellipse><ellipse cx="38" cy="60" rx="9" ry="20" fill="#fff"></ellipse><ellipse cx="37.5" cy="60" rx="5" ry="10" fill="red"></ellipse></g></defs><rect class="zoomarea" x="31" y="25" color="#00aa00" width="646" height="398"></rect><g class="focus" transform="translate(0,0)"><g class="focusclip" clip-path="url(#plotclip1)" transform="translate(31,25)"><g class="plot"><g id="pastboxgrp"></g><g id="ybhpgrp"><path class="ybhp halfplane3" id="r02" d="M9.4 386.8 L9.4 386.8 L130 386.8 L110104.4 -82319 L110104.4 -82319 L110104.4 -82319 L110056.2 -82319 L130 350.5 L81.8 386.8 L9.4 386.8 L9.4 386.8 Z" fill="#ffff88" fill-opacity="0.72" stroke="none" stroke-width="0"></path><path class="ybhp halfplane4" id="r4564-1" d="M9.4 -82319 L9.4 -82319 L130 -82319 L110104.4 -82319 L110104.4 -82319 L110104.4 -82319 L110104.4 -7846.4 L9.4 -7846.4 Z" fill="#ffffbd" fill-opacity="0.72" stroke="none" stroke-width="0"></path></g><g id="wmarkgrp"><text class="waterbuf" x="161.5" y="149.5" style="font-size: 150px; font-weight: bolder; fill: rgb(0, 0, 0);">Fri</text><text class="waterbux" x="484.5" y="334.4978364957618" style="font-size: 92.8311px; font-weight: bolder; fill: rgb(0, 0, 0);">$0.01</text></g><g id="guidegrp"><path class="guides" d="M9.4 386.8 L9.4 386.8 L130 386.8 L110104.4 -82319" id="g0"></path><path class="guides" d="M9.4 386.8 L9.4 386.8 L105.9 386.8 L130 368.6 L110080.3 -82319" id="g1"></path><path class="guides" d="M9.4 386.8 L9.4 386.8 L81.8 386.8 L130 350.5 L110056.2 -82319" id="g2"></path><path class="guides" d="M9.4 386.8 L9.4 386.8 L57.7 386.8 L130 332.3 L110032 -82319" id="g3"></path><path class="guides" d="M9.4 386.8 L9.4 386.8 L33.5 386.8 L130 314.2 L110007.9 -82319" id="g4"></path><path class="guides" d="M9.4 386.8 L9.4 386.8 L130 296.1 L109983.8 -82319" id="g5"></path><path class="guides" d="M9.4 368.6 L9.4 368.6 L130 277.9 L109959.7 -82319" id="g6"></path><path class="guides" d="M9.4 350.5 L9.4 350.5 L130 259.8 L109935.5 -82319" id="g7"></path><path class="guides" d="M9.4 332.3 L9.4 332.3 L130 241.6 L109911.4 -82319" id="g8"></path><path class="guides" d="M9.4 314.2 L9.4 314.2 L130 223.5 L109887.3 -82319" id="g9"></path><path class="guides" d="M9.4 296.1 L9.4 296.1 L130 205.3 L109863.2 -82319" id="g10"></path><path class="guides" d="M9.4 277.9 L9.4 277.9 L130 187.2 L109839.1 -82319" id="g11"></path><path class="guides" d="M9.4 259.8 L9.4 259.8 L130 169.1 L109814.9 -82319" id="g12"></path><path class="guides" d="M9.4 241.6 L9.4 241.6 L130 150.9 L109790.8 -82319" id="g13"></path><path class="guides" d="M9.4 223.5 L9.4 223.5 L130 132.8 L109766.7 -82319" id="g14"></path><path class="guides" d="M9.4 205.3 L9.4 205.3 L130 114.6 L109742.6 -82319" id="g15"></path><path class="guides" d="M9.4 187.2 L9.4 187.2 L130 96.5 L109718.4 -82319" id="g16"></path><path class="guides" d="M9.4 169.1 L9.4 169.1 L130 78.4 L109694.3 -82319" id="g17"></path><path class="guides" d="M9.4 150.9 L9.4 150.9 L130 60.2 L109670.2 -82319" id="g18"></path><path class="guides" d="M9.4 132.8 L9.4 132.8 L130 42.1 L109646.1 -82319" id="g19"></path><path class="guides" d="M9.4 114.6 L9.4 114.6 L130 23.9 L109622 -82319" id="g20"></path><path class="guides" d="M9.4 96.5 L9.4 96.5 L130 5.8 L109597.8 -82319" id="g21"></path><path class="guides" d="M9.4 78.4 L9.4 78.4 L130 -12.3 L109573.7 -82319" id="g22"></path><path class="guides" d="M9.4 60.2 L9.4 60.2 L130 -30.5 L109549.6 -82319" id="g23"></path><path class="guides" d="M9.4 42.1 L9.4 42.1 L130 -48.6 L109525.5 -82319" id="g24"></path><path class="guides" d="M9.4 23.9 L9.4 23.9 L130 -66.8 L109501.3 -82319" id="g25"></path><path class="guides" d="M9.4 5.8 L9.4 5.8 L130 -84.9 L109477.2 -82319" id="g26"></path></g><g id="maxfluxgrp"></g><g id="stdfluxgrp"></g><g id="ybhplinesgrp"><path class="ybhp halfplane0" id="r66" d="M9.4 369.1 L9.4 369.1 L130 278.4 L109959.7 -82318.5 L110104.4 -82318.5 L110104.4 -82318.5" fill="none" fill-opacity="1" stroke="#6BC461" stroke-width="0.99"></path><path class="ybhp halfplane1" id="r22" d="M9.4 387.3 L9.4 387.3 L81.8 387.3 L130 351 L110056.2 -82318.5 L110104.4 -82318.5 L110104.4 -82318.5" fill="none" fill-opacity="1" stroke="#3f3fff" stroke-width="0.99"></path><path class="ybhp halfplane2" id="r11" d="M9.4 387.3 L9.4 387.3 L105.9 387.3 L130 369.1 L110080.3 -82318.5 L110104.4 -82318.5 L110104.4 -82318.5" fill="none" fill-opacity="1" stroke="#ffa500" stroke-width="0.99"></path></g><g id="razrgrp"><path class="razr" d="M9.4 386.8 L9.4 386.8 L130 386.8 L110104.4 -82319"></path></g><g id="auragrp"></g><g id="pinkgrp"><path class="pinkregion" d="M298.8775205377147 259.77305255481104 L443.61239731142643 150.9257942476868 L443.61239731142643 41552.79461233419 L298.8775205377147 41552.79461233419 Z" fill-opacity="0.4" fill="url(#pinkzonepat1)"></path></g><g id="oldbullseyegrp"></g><g id="bullseyegrp"><use xlink:href="#beye" class="bullseye" x="110104.4" y="-82319" transform="scale(0.33) translate(-40,-60)" transform-origin="110104.4 -82319"></use></g><g id="grid"><g class="grid" transform="translate(0,398)" fill="none" font-size="10" font-family="sans-serif" text-anchor="middle"><path class="domain" stroke="currentColor" d="M0.5,-646V0.5H646.5V-646"></path><g class="tick minor" opacity="1" transform="translate(9.907766990291263,0)"><line stroke="currentColor" y2="-646"></line><text fill="currentColor" y="-649" dy="0em"></text></g><g class="tick minor" opacity="1" transform="translate(34.03024645257655,0)"><line stroke="currentColor" y2="-646"></line><text fill="currentColor" y="-649" dy="0em"></text></g><g class="tick minor" opacity="1" transform="translate(58.15272591486184,0)"><line stroke="currentColor" y2="-646"></line><text fill="currentColor" y="-649" dy="0em"></text></g><g class="tick minor" opacity="1" transform="translate(82.27520537714713,0)"><line stroke="currentColor" y2="-646"></line><text fill="currentColor" y="-649" dy="0em"></text></g><g class="tick minor" opacity="1" transform="translate(106.39768483943242,0)"><line stroke="currentColor" y2="-646"></line><text fill="currentColor" y="-649" dy="0em"></text></g><g class="tick minor" opacity="1" transform="translate(130.5201643017177,0)"><line stroke="currentColor" y2="-646"></line><text fill="currentColor" y="-649" dy="0em"></text></g><g class="tick" opacity="1" transform="translate(154.642643764003,0)"><line stroke="currentColor" y2="-646"></line><text fill="currentColor" y="-649" dy="0em"></text></g><g class="tick minor" opacity="1" transform="translate(178.7651232262883,0)"><line stroke="currentColor" y2="-646"></line><text fill="currentColor" y="-649" dy="0em"></text></g><g class="tick minor" opacity="1" transform="translate(202.88760268857354,0)"><line stroke="currentColor" y2="-646"></line><text fill="currentColor" y="-649" dy="0em"></text></g><g class="tick minor" opacity="1" transform="translate(227.01008215085884,0)"><line stroke="currentColor" y2="-646"></line><text fill="currentColor" y="-649" dy="0em"></text></g><g class="tick minor" opacity="1" transform="translate(251.13256161314413,0)"><line stroke="currentColor" y2="-646"></line><text fill="currentColor" y="-649" dy="0em"></text></g><g class="tick minor" opacity="1" transform="translate(275.2550410754294,0)"><line stroke="currentColor" y2="-646"></line><text fill="currentColor" y="-649" dy="0em"></text></g><g class="tick minor" opacity="1" transform="translate(299.3775205377147,0)"><line stroke="currentColor" y2="-646"></line><text fill="currentColor" y="-649" dy="0em"></text></g><g class="tick" opacity="1" transform="translate(323.5,0)"><line stroke="currentColor" y2="-646"></line><text fill="currentColor" y="-649" dy="0em"></text></g><g class="tick minor" opacity="1" transform="translate(347.62247946228524,0)"><line stroke="currentColor" y2="-646"></line><text fill="currentColor" y="-649" dy="0em"></text></g><g class="tick minor" opacity="1" transform="translate(371.7449589245706,0)"><line stroke="currentColor" y2="-646"></line><text fill="currentColor" y="-649" dy="0em"></text></g><g class="tick minor" opacity="1" transform="translate(395.86743838685584,0)"><line stroke="currentColor" y2="-646"></line><text fill="currentColor" y="-649" dy="0em"></text></g><g class="tick minor" opacity="1" transform="translate(419.98991784914114,0)"><line stroke="currentColor" y2="-646"></line><text fill="currentColor" y="-649" dy="0em"></text></g><g class="tick minor" opacity="1" transform="translate(444.11239731142643,0)"><line stroke="currentColor" y2="-646"></line><text fill="currentColor" y="-649" dy="0em"></text></g><g class="tick minor" opacity="1" transform="translate(468.23487677371173,0)"><line stroke="currentColor" y2="-646"></line><text fill="currentColor" y="-649" dy="0em"></text></g><g class="tick" opacity="1" transform="translate(492.357356235997,0)"><line stroke="currentColor" y2="-646"></line><text fill="currentColor" y="-649" dy="0em"></text></g><g class="tick minor" opacity="1" transform="translate(516.4798356982823,0)"><line stroke="currentColor" y2="-646"></line><text fill="currentColor" y="-649" dy="0em"></text></g><g class="tick minor" opacity="1" transform="translate(540.6023151605676,0)"><line stroke="currentColor" y2="-646"></line><text fill="currentColor" y="-649" dy="0em"></text></g><g class="tick minor" opacity="1" transform="translate(564.7247946228529,0)"><line stroke="currentColor" y2="-646"></line><text fill="currentColor" y="-649" dy="0em"></text></g><g class="tick minor" opacity="1" transform="translate(588.8472740851381,0)"><line stroke="currentColor" y2="-646"></line><text fill="currentColor" y="-649" dy="0em"></text></g><g class="tick minor" opacity="1" transform="translate(612.9697535474235,0)"><line stroke="currentColor" y2="-646"></line><text fill="currentColor" y="-649" dy="0em"></text></g><g class="tick minor" opacity="1" transform="translate(637.0922330097087,0)"><line stroke="currentColor" y2="-646"></line><text fill="currentColor" y="-649" dy="0em"></text></g></g></g><g id="oresetgrp"></g><g id="knotgrp"></g><g id="steppygrp"><path class="steppy" d="M9.4 386.8 L9.4 386.8 L9.4 386.8 L9.4 386.8 L33.5 386.8 L33.5 205.3 L298.9 205.3 L298.9 205.3"></path></g><g id="rosygrp"></g><g id="rosyptsgrp"></g><g id="derailsgrp"></g><g id="allptsgrp"><circle class="ap grn" cx="9.4" cy="386.8"></circle><circle class="ap gra" cx="33.5" cy="205.3"></circle></g><g id="movingavgrp"></g><g id="steppyptsgrp"><circle class="std" cx="9.4" cy="386.8"></circle><circle class="std" cx="33.5" cy="205.3"></circle></g><g id="datapointgrp"><circle class="dp grn" cx="9.4" cy="386.8"></circle><circle class="dp gra" cx="33.5" cy="205.3"></circle></g><g id="hollowgrp"></g><g id="flatlinegrp"><use class="fladp" xlink:href="#rightarrow" fill="#00aa00" fill-opacity="1" transform="translate(298.8775205377147,205.34942340124897),scale(0.1739412100456621)" style="pointer-events: all;"></use></g><g id="hashtaggrp"><text class="hashtag" x="9.407766990291263" y="199" transform="rotate(-90,9.407766990291263,199)" style="font-size: 10px;">#hash1</text><text class="hashtag" x="33.53024645257655" y="199" transform="rotate(-90,33.53024645257655,199)" style="font-size: 10px;">#hash2</text></g><g id="roadgrp"></g><g id="dotgrp"></g><g id="horgrp"><line class="horizon" x1="443.61239731142643" y1="0" x2="443.61239731142643" y2="398" stroke-width="1.67" style="stroke: rgb(76, 76, 255); stroke-dasharray: 8, 8;"></line></g><g id="hortxtgrp"><text class="horizontext" x="457.61239731142643" y="199" transform="rotate(-90,457.61239731142643,199)" fill="#4C4Cff" style="font-size: 10px;">Akrasia Horizon</text></g><g id="pasttxtgrp"></g><g visibility="hidden"><rect x="0" y="0" stroke-width="20" stroke="url(#tapepat1)" fill="none" width="646" height="398"></rect><text y="45" paint-order="stroke" stroke-width="2px" stroke="#a00000" font-size="35px" text-anchor="middle" fill="#ff0000" x="323">Error</text></g></g></g><text x="348" y="15" width="566" class="svgtxt" text-anchor="middle" style="font-size: 80%;"></text><g class="axis" transform="translate(31,423)" fill="none" font-size="10" font-family="sans-serif" text-anchor="middle"><path class="domain" stroke="currentColor" d="M0.5,0.5H646.5"></path><g class="tick minor" opacity="1" transform="translate(9.907766990291263,0)"><line stroke="currentColor" y2="6" transform="translate(0,-5)"></line><text fill="currentColor" y="9" dy="0.71em"></text></g><g class="tick minor" opacity="1" transform="translate(34.03024645257655,0)"><line stroke="currentColor" y2="6" transform="translate(0,-5)"></line><text fill="currentColor" y="9" dy="0.71em"></text></g><g class="tick minor" opacity="1" transform="translate(58.15272591486184,0)"><line stroke="currentColor" y2="6" transform="translate(0,-5)"></line><text fill="currentColor" y="9" dy="0.71em"></text></g><g class="tick minor" opacity="1" transform="translate(82.27520537714713,0)"><line stroke="currentColor" y2="6" transform="translate(0,-5)"></line><text fill="currentColor" y="9" dy="0.71em"></text></g><g class="tick minor" opacity="1" transform="translate(106.39768483943242,0)"><line stroke="currentColor" y2="6" transform="translate(0,-5)"></line><text fill="currentColor" y="9" dy="0.71em"></text></g><g class="tick minor" opacity="1" transform="translate(130.5201643017177,0)"><line stroke="currentColor" y2="6" transform="translate(0,-5)"></line><text fill="currentColor" y="9" dy="0.71em"></text></g><g class="tick" opacity="1" transform="translate(154.642643764003,0)"><line stroke="currentColor" y2="6" transform="translate(0,-5)"></line><text fill="currentColor" y="9" dy="0.71em">Jul 04</text></g><g class="tick minor" opacity="1" transform="translate(178.7651232262883,0)"><line stroke="currentColor" y2="6" transform="translate(0,-5)"></line><text fill="currentColor" y="9" dy="0.71em"></text></g><g class="tick minor" opacity="1" transform="translate(202.88760268857354,0)"><line stroke="currentColor" y2="6" transform="translate(0,-5)"></line><text fill="currentColor" y="9" dy="0.71em"></text></g><g class="tick minor" opacity="1" transform="translate(227.01008215085884,0)"><line stroke="currentColor" y2="6" transform="translate(0,-5)"></line><text fill="currentColor" y="9" dy="0.71em"></text></g><g class="tick minor" opacity="1" transform="translate(251.13256161314413,0)"><line stroke="currentColor" y2="6" transform="translate(0,-5)"></line><text fill="currentColor" y="9" dy="0.71em"></text></g><g class="tick minor" opacity="1" transform="translate(275.2550410754294,0)"><line stroke="currentColor" y2="6" transform="translate(0,-5)"></line><text fill="currentColor" y="9" dy="0.71em"></text></g><g class="tick minor" opacity="1" transform="translate(299.3775205377147,0)"><line stroke="currentColor" y2="6" transform="translate(0,-5)"></line><text fill="currentColor" y="9" dy="0.71em"></text></g><g class="tick" opacity="1" transform="translate(323.5,0)"><line stroke="currentColor" y2="6" transform="translate(0,-5)"></line><text fill="currentColor" y="9" dy="0.71em">Jul 11</text></g><g class="tick minor" opacity="1" transform="translate(347.62247946228524,0)"><line stroke="currentColor" y2="6" transform="translate(0,-5)"></line><text fill="currentColor" y="9" dy="0.71em"></text></g><g class="tick minor" opacity="1" transform="translate(371.7449589245706,0)"><line stroke="currentColor" y2="6" transform="translate(0,-5)"></line><text fill="currentColor" y="9" dy="0.71em"></text></g><g class="tick minor" opacity="1" transform="translate(395.86743838685584,0)"><line stroke="currentColor" y2="6" transform="translate(0,-5)"></line><text fill="currentColor" y="9" dy="0.71em"></text></g><g class="tick minor" opacity="1" transform="translate(419.98991784914114,0)"><line stroke="currentColor" y2="6" transform="translate(0,-5)"></line><text fill="currentColor" y="9" dy="0.71em"></text></g><g class="tick minor" opacity="1" transform="translate(444.11239731142643,0)"><line stroke="currentColor" y2="6" transform="translate(0,-5)"></line><text fill="currentColor" y="9" dy="0.71em"></text></g><g class="tick minor" opacity="1" transform="translate(468.23487677371173,0)"><line stroke="currentColor" y2="6" transform="translate(0,-5)"></line><text fill="currentColor" y="9" dy="0.71em"></text></g><g class="tick" opacity="1" transform="translate(492.357356235997,0)"><line stroke="currentColor" y2="6" transform="translate(0,-5)"></line><text fill="currentColor" y="9" dy="0.71em">Jul 18</text></g><g class="tick minor" opacity="1" transform="translate(516.4798356982823,0)"><line stroke="currentColor" y2="6" transform="translate(0,-5)"></line><text fill="currentColor" y="9" dy="0.71em"></text></g><g class="tick minor" opacity="1" transform="translate(540.6023151605676,0)"><line stroke="currentColor" y2="6" transform="translate(0,-5)"></line><text fill="currentColor" y="9" dy="0.71em"></text></g><g class="tick minor" opacity="1" transform="translate(564.7247946228529,0)"><line stroke="currentColor" y2="6" transform="translate(0,-5)"></line><text fill="currentColor" y="9" dy="0.71em"></text></g><g class="tick minor" opacity="1" transform="translate(588.8472740851381,0)"><line stroke="currentColor" y2="6" transform="translate(0,-5)"></line><text fill="currentColor" y="9" dy="0.71em"></text></g><g class="tick minor" opacity="1" transform="translate(612.9697535474235,0)"><line stroke="currentColor" y2="6" transform="translate(0,-5)"></line><text fill="currentColor" y="9" dy="0.71em"></text></g><g class="tick minor" opacity="1" transform="translate(637.0922330097087,0)"><line stroke="currentColor" y2="6" transform="translate(0,-5)"></line><text fill="currentColor" y="9" dy="0.71em"></text></g></g><g class="axis" transform="translate(31,25)" fill="none" font-size="10" font-family="sans-serif" text-anchor="middle"><path class="domain" stroke="currentColor" d="M0.5,0.5H646.5"></path><g class="tick minor" opacity="1" transform="translate(9.907766990291263,0)"><line stroke="currentColor" y2="-6" transform="translate(0,6)"></line><text fill="currentColor" y="-9" dy="0em"></text></g><g class="tick minor" opacity="1" transform="translate(34.03024645257655,0)"><line stroke="currentColor" y2="-6" transform="translate(0,6)"></line><text fill="currentColor" y="-9" dy="0em"></text></g><g class="tick minor" opacity="1" transform="translate(58.15272591486184,0)"><line stroke="currentColor" y2="-6" transform="translate(0,6)"></line><text fill="currentColor" y="-9" dy="0em"></text></g><g class="tick minor" opacity="1" transform="translate(82.27520537714713,0)"><line stroke="currentColor" y2="-6" transform="translate(0,6)"></line><text fill="currentColor" y="-9" dy="0em"></text></g><g class="tick minor" opacity="1" transform="translate(106.39768483943242,0)"><line stroke="currentColor" y2="-6" transform="translate(0,6)"></line><text fill="currentColor" y="-9" dy="0em"></text></g><g class="tick minor" opacity="1" transform="translate(130.5201643017177,0)"><line stroke="currentColor" y2="-6" transform="translate(0,6)"></line><text fill="currentColor" y="-9" dy="0em"></text></g><g class="tick" opacity="1" transform="translate(154.642643764003,0)"><line stroke="currentColor" y2="-6" transform="translate(0,6)"></line><text fill="currentColor" y="-9" dy="0em">Jul 04</text></g><g class="tick minor" opacity="1" transform="translate(178.7651232262883,0)"><line stroke="currentColor" y2="-6" transform="translate(0,6)"></line><text fill="currentColor" y="-9" dy="0em"></text></g><g class="tick minor" opacity="1" transform="translate(202.88760268857354,0)"><line stroke="currentColor" y2="-6" transform="translate(0,6)"></line><text fill="currentColor" y="-9" dy="0em"></text></g><g class="tick minor" opacity="1" transform="translate(227.01008215085884,0)"><line stroke="currentColor" y2="-6" transform="translate(0,6)"></line><text fill="currentColor" y="-9" dy="0em"></text></g><g class="tick minor" opacity="1" transform="translate(251.13256161314413,0)"><line stroke="currentColor" y2="-6" transform="translate(0,6)"></line><text fill="currentColor" y="-9" dy="0em"></text></g><g class="tick minor" opacity="1" transform="translate(275.2550410754294,0)"><line stroke="currentColor" y2="-6" transform="translate(0,6)"></line><text fill="currentColor" y="-9" dy="0em"></text></g><g class="tick minor" opacity="1" transform="translate(299.3775205377147,0)"><line stroke="currentColor" y2="-6" transform="translate(0,6)"></line><text fill="currentColor" y="-9" dy="0em"></text></g><g class="tick" opacity="1" transform="translate(323.5,0)"><line stroke="currentColor" y2="-6" transform="translate(0,6)"></line><text fill="currentColor" y="-9" dy="0em">Jul 11</text></g><g class="tick minor" opacity="1" transform="translate(347.62247946228524,0)"><line stroke="currentColor" y2="-6" transform="translate(0,6)"></line><text fill="currentColor" y="-9" dy="0em"></text></g><g class="tick minor" opacity="1" transform="translate(371.7449589245706,0)"><line stroke="currentColor" y2="-6" transform="translate(0,6)"></line><text fill="currentColor" y="-9" dy="0em"></text></g><g class="tick minor" opacity="1" transform="translate(395.86743838685584,0)"><line stroke="currentColor" y2="-6" transform="translate(0,6)"></line><text fill="currentColor" y="-9" dy="0em"></text></g><g class="tick minor" opacity="1" transform="translate(419.98991784914114,0)"><line stroke="currentColor" y2="-6" transform="translate(0,6)"></line><text fill="currentColor" y="-9" dy="0em"></text></g><g class="tick minor" opacity="1" transform="translate(444.11239731142643,0)"><line stroke="currentColor" y2="-6" transform="translate(0,6)"></line><text fill="currentColor" y="-9" dy="0em"></text></g><g class="tick minor" opacity="1" transform="translate(468.23487677371173,0)"><line stroke="currentColor" y2="-6" transform="translate(0,6)"></line><text fill="currentColor" y="-9" dy="0em"></text></g><g class="tick" opacity="1" transform="translate(492.357356235997,0)"><line stroke="currentColor" y2="-6" transform="translate(0,6)"></line><text fill="currentColor" y="-9" dy="0em">Jul 18</text></g><g class="tick minor" opacity="1" transform="translate(516.4798356982823,0)"><line stroke="currentColor" y2="-6" transform="translate(0,6)"></line><text fill="currentColor" y="-9" dy="0em"></text></g><g class="tick minor" opacity="1" transform="translate(540.6023151605676,0)"><line stroke="currentColor" y2="-6" transform="translate(0,6)"></line><text fill="currentColor" y="-9" dy="0em"></text></g><g class="tick minor" opacity="1" transform="translate(564.7247946228529,0)"><line stroke="currentColor" y2="-6" transform="translate(0,6)"></line><text fill="currentColor" y="-9" dy="0em"></text></g><g class="tick minor" opacity="1" transform="translate(588.8472740851381,0)"><line stroke="currentColor" y2="-6" transform="translate(0,6)"></line><text fill="currentColor" y="-9" dy="0em"></text></g><g class="tick minor" opacity="1" transform="translate(612.9697535474235,0)"><line stroke="currentColor" y2="-6" transform="translate(0,6)"></line><text fill="currentColor" y="-9" dy="0em"></text></g><g class="tick minor" opacity="1" transform="translate(637.0922330097087,0)"><line stroke="currentColor" y2="-6" transform="translate(0,6)"></line><text fill="currentColor" y="-9" dy="0em"></text></g></g><g class="axis" transform="translate(31,25)" fill="none" font-size="10" font-family="sans-serif" text-anchor="end"><path class="domain" stroke="currentColor" d="M0.5,0.5V398.5"></path><g class="tick" opacity="1" transform="translate(0,24.43732622270849)"><line stroke="currentColor" x2="-6" transform="translate(6,0)"></line><text fill="currentColor" x="-9" dy="0.32em" display="none">20</text></g><g class="tick" opacity="1" transform="translate(0,60.7197456584166)"><line stroke="currentColor" x2="-6" transform="translate(6,0)"></line><text fill="currentColor" x="-9" dy="0.32em" display="none">18</text></g><g class="tick" opacity="1" transform="translate(0,97.00216509412466)"><line stroke="currentColor" x2="-6" transform="translate(6,0)"></line><text fill="currentColor" x="-9" dy="0.32em" display="none">16</text></g><g class="tick" opacity="1" transform="translate(0,133.28458452983278)"><line stroke="currentColor" x2="-6" transform="translate(6,0)"></line><text fill="currentColor" x="-9" dy="0.32em" display="none">14</text></g><g class="tick" opacity="1" transform="translate(0,169.56700396554086)"><line stroke="currentColor" x2="-6" transform="translate(6,0)"></line><text fill="currentColor" x="-9" dy="0.32em" display="none">12</text></g><g class="tick" opacity="1" transform="translate(0,205.84942340124897)"><line stroke="currentColor" x2="-6" transform="translate(6,0)"></line><text fill="currentColor" x="-9" dy="0.32em" display="none">10</text></g><g class="tick" opacity="1" transform="translate(0,242.13184283695702)"><line stroke="currentColor" x2="-6" transform="translate(6,0)"></line><text fill="currentColor" x="-9" dy="0.32em" display="none">8</text></g><g class="tick" opacity="1" transform="translate(0,278.4142622726651)"><line stroke="currentColor" x2="-6" transform="translate(6,0)"></line><text fill="currentColor" x="-9" dy="0.32em" display="none">6</text></g><g class="tick" opacity="1" transform="translate(0,314.6966817083732)"><line stroke="currentColor" x2="-6" transform="translate(6,0)"></line><text fill="currentColor" x="-9" dy="0.32em" display="none">4</text></g><g class="tick" opacity="1" transform="translate(0,350.97910114408126)"><line stroke="currentColor" x2="-6" transform="translate(6,0)"></line><text fill="currentColor" x="-9" dy="0.32em" display="none">2</text></g><g class="tick" opacity="1" transform="translate(0,387.2615205797894)"><line stroke="currentColor" x2="-6" transform="translate(6,0)"></line><text fill="currentColor" x="-9" dy="0.32em" display="none">0</text></g></g><g class="axis" transform="translate(677,25)" fill="none" font-size="10" font-family="sans-serif" text-anchor="start"><path class="domain" stroke="currentColor" d="M0.5,0.5V398.5"></path><g class="tick" opacity="1" transform="translate(0,24.43732622270849)"><line stroke="currentColor" x2="6" transform="translate(-5,0)"></line><text fill="currentColor" x="9" dy="0.32em" display="none">20</text></g><g class="tick" opacity="1" transform="translate(0,60.7197456584166)"><line stroke="currentColor" x2="6" transform="translate(-5,0)"></line><text fill="currentColor" x="9" dy="0.32em" display="none">18</text></g><g class="tick" opacity="1" transform="translate(0,97.00216509412466)"><line stroke="currentColor" x2="6" transform="translate(-5,0)"></line><text fill="currentColor" x="9" dy="0.32em" display="none">16</text></g><g class="tick" opacity="1" transform="translate(0,133.28458452983278)"><line stroke="currentColor" x2="6" transform="translate(-5,0)"></line><text fill="currentColor" x="9" dy="0.32em" display="none">14</text></g><g class="tick" opacity="1" transform="translate(0,169.56700396554086)"><line stroke="currentColor" x2="6" transform="translate(-5,0)"></line><text fill="currentColor" x="9" dy="0.32em" display="none">12</text></g><g class="tick" opacity="1" transform="translate(0,205.84942340124897)"><line stroke="currentColor" x2="6" transform="translate(-5,0)"></line><text fill="currentColor" x="9" dy="0.32em" display="none">10</text></g><g class="tick" opacity="1" transform="translate(0,242.13184283695702)"><line stroke="currentColor" x2="6" transform="translate(-5,0)"></line><text fill="currentColor" x="9" dy="0.32em" display="none">8</text></g><g class="tick" opacity="1" transform="translate(0,278.4142622726651)"><line stroke="currentColor" x2="6" transform="translate(-5,0)"></line><text fill="currentColor" x="9" dy="0.32em" display="none">6</text></g><g class="tick" opacity="1" transform="translate(0,314.6966817083732)"><line stroke="currentColor" x2="6" transform="translate(-5,0)"></line><text fill="currentColor" x="9" dy="0.32em" display="none">4</text></g><g class="tick" opacity="1" transform="translate(0,350.97910114408126)"><line stroke="currentColor" x2="6" transform="translate(-5,0)"></line><text fill="currentColor" x="9" dy="0.32em" display="none">2</text></g><g class="tick" opacity="1" transform="translate(0,387.2615205797894)"><line stroke="currentColor" x2="6" transform="translate(-5,0)"></line><text fill="currentColor" x="9" dy="0.32em" display="none">0</text></g></g><text class="axislabel" transform="translate(15,224) rotate(-90)">cumulative total tests</text></g></svg>