<?xml version="1.0" encoding="UTF-8" standalone="no"?>
<!-- Generator: Adobe Illustrator 16.0.0, SVG Export Plug-In . SVG Version: 6.00 Build 0)  -->

<svg
   xmlns:dc="http://purl.org/dc/elements/1.1/"
   xmlns:cc="http://creativecommons.org/ns#"
   xmlns:rdf="http://www.w3.org/1999/02/22-rdf-syntax-ns#"
   xmlns:svg="http://www.w3.org/2000/svg"
   xmlns="http://www.w3.org/2000/svg"
   xmlns:sodipodi="http://sodipodi.sourceforge.net/DTD/sodipodi-0.dtd"
   xmlns:inkscape="http://www.inkscape.org/namespaces/inkscape"
   version="1.1"
   id="Capa_1"
   x="0px"
   y="0px"
   width="540"
   height="540"
   viewBox="0 0 540.00002 540.00002"
   xml:space="preserve"
   inkscape:version="0.48.4 r9939"
   sodipodi:docname="zoomout.svg"><metadata
     id="metadata44"><rdf:RDF><cc:Work
         rdf:about=""><dc:format>image/svg+xml</dc:format><dc:type
           rdf:resource="http://purl.org/dc/dcmitype/StillImage" /><dc:title></dc:title></cc:Work></rdf:RDF></metadata><defs
     id="defs42" /><sodipodi:namedview
     pagecolor="#ffffff"
     bordercolor="#666666"
     borderopacity="1"
     objecttolerance="10"
     gridtolerance="10"
     guidetolerance="10"
     inkscape:pageopacity="0"
     inkscape:pageshadow="2"
     inkscape:window-width="1304"
     inkscape:window-height="817"
     id="namedview40"
     showgrid="false"
     inkscape:zoom="1.0906757"
     inkscape:cx="-6.2975159"
     inkscape:cy="283.96045"
     inkscape:window-x="42"
     inkscape:window-y="190"
     inkscape:window-maximized="0"
     inkscape:current-layer="Capa_1" /><path
     sodipodi:type="arc"
     style="fill:#ffffff;fill-opacity:1;stroke:#ffffff;stroke-width:0.70866143999999998;stroke-miterlimit:4;stroke-opacity:1;stroke-dasharray:0.70866141999999999, 1.41732283000000003;stroke-dashoffset:0"
     id="path3046"
     sodipodi:cx="266.80707"
     sodipodi:cy="264.94116"
     sodipodi:rx="264.05649"
     sodipodi:ry="261.30591"
     d="m 530.86356,264.94116 a 264.05649,261.30591 0 1 1 -528.1129802,0 264.05649,261.30591 0 1 1 528.1129802,0 z"
     transform="matrix(1.0121341,0,0,1.0157706,-0.02843255,-0.05238682)" /><path
     inkscape:connector-curvature="0"
     id="path8"
     d="m 155.105,231.65502 0,76.553 229.657,0 0,-76.553 c -76.55233,0 -153.10467,0 -229.657,0 z m 382.764,38.277 C 537.869,119.51007 420.50428,1.9980234 269.935,1.9980234 121.959,1.9980234 2.0000001,121.95602 2.0000001,269.93202 c 0,147.976 117.2473599,267.934 267.9339999,267.934 150.68664,0 267.935,-117.51205 267.935,-267.934 z m -267.935,191.381 c -105.681,0 -191.381,-85.7 -191.381,-191.381 0,-105.681 85.701,-191.380996 191.381,-191.380996 105.681,0 191.381,85.700996 191.381,191.380996 0,105.681 -85.7,191.381 -191.381,191.381 z"
     sodipodi:nodetypes="ccccczsszzsssss" /><g
     id="g10"
     transform="translate(0,-72.013979)" /><g
     id="g12"
     transform="translate(0,-72.013979)" /><g
     id="g14"
     transform="translate(0,-72.013979)" /><g
     id="g16"
     transform="translate(0,-72.013979)" /><g
     id="g18"
     transform="translate(0,-72.013979)" /><g
     id="g20"
     transform="translate(0,-72.013979)" /><g
     id="g22"
     transform="translate(0,-72.013979)" /><g
     id="g24"
     transform="translate(0,-72.013979)" /><g
     id="g26"
     transform="translate(0,-72.013979)" /><g
     id="g28"
     transform="translate(0,-72.013979)" /><g
     id="g30"
     transform="translate(0,-72.013979)" /><g
     id="g32"
     transform="translate(0,-72.013979)" /><g
     id="g34"
     transform="translate(0,-72.013979)" /><g
     id="g36"
     transform="translate(0,-72.013979)" /><g
     id="g38"
     transform="translate(0,-72.013979)" /></svg>