<?xml version="1.0" encoding="UTF-8"?>
<!-- Created with Inkscape (http://www.inkscape.org/) -->
<svg width="226" height="226" version="1.1" viewBox="0 0 226 226" xmlns="http://www.w3.org/2000/svg" xmlns:cc="http://creativecommons.org/ns#" xmlns:dc="http://purl.org/dc/elements/1.1/" xmlns:rdf="http://www.w3.org/1999/02/22-rdf-syntax-ns#">
 <metadata>
  <rdf:RDF>
   <cc:Work rdf:about="">
    <dc:format>image/svg+xml</dc:format>
    <dc:type rdf:resource="http://purl.org/dc/dcmitype/StillImage"/>
    <dc:title/>
   </cc:Work>
  </rdf:RDF>
 </metadata>
 <g fill="#767676" stroke="#000" stroke-width="1px">
  <path d="m51.3 169 140-69.7s17.7 4.6 21.9 0.707c4.24-3.89 6.01-10.6 3.18-13.8-2.83-3.18-5.3 1.06-10.6-3.54s-1.06-4.6-6.01-8.84c-4.95-4.24-8.84-2.12-12 0.354s0 8.49-2.83 11c-2.83 2.47-141 72.5-141 72.5s-16.6 2.12-22.3 6.72c-5.66 4.6 1.41 7.07 4.6 11.7 3.18 4.6 1.77 6.01 6.01 8.84 4.24 2.83 5.66 1.77 9.9-1.77s5.66-11.3 9.55-14.1z"/>
  <path d="m41.4 86.3s127 66.1 133 68.9c6.01 2.83 15.2-2.47 19.8-0.354 4.6 2.12 5.66 6.72 3.89 10.3-1.77 3.54-7.42 14.1-9.9 18.7-2.47 4.6-4.6 3.89-10.6 0.707s-4.24-13.8-6.36-14.8-127-65.8-132-68.2c-4.6-2.47-16.3 4.95-25.1 0.707-8.84-4.24-5.66-11.3-5.66-13.1s2.47-2.47 4.24-8.13c1.77-5.66-2.12-7.42 1.41-11.3 3.54-3.89 6.72-2.83 11-0.354 4.24 2.47 13.4 15.2 16.3 17z"/>
  <path d="m109 20.9c17.9-0.508 44.6 7.07 51.6 14.5 7.07 7.42 15.9 17.7 17.3 45.3 1.41 27.6-5.02 22.2-9.55 35-4.12 11.7 2.15 16.3 1.06 22.3-2.14 11.8-19.8 8.77-24 10.2-2.32 0.8-4.24 6.01-4.24 6.01l-7.07 2.12s-1.1 2.93-0.62 8.75c-0.68-0.27-2.32 1.26-2.97 0.89-3.53-1.99-6.31-5.75-6.31-5.75l-0.36 8.13-7.77-0.35-0.71-4.25-1.42 4.6-5.3-0.35-2.12-4.95-4.6 2.47-3.53-1.06-1.06-11-3.54 8.84-4.6-1.77-1.41-5.3-1.41 2.83-3.18-2.48-1.41-9.19s-5.87-3.86-9.19-3.89c-2.54 0-4.58 3.34-7.07 2.83-3.43-0.7-6.34-4.1-7.42-7.42-1.4-4.32 2.84-8.96 2.12-13.4-2.72-17-15.2-18.2-15.2-49.5 0.02-12.3 2.37-25.3 11.6-34 9.21-8.73 31-19.5 52.4-20.1z"/>
  <path d="m73.7 177c0.34 2.72 21 25.1 39.2 25 7.11-0.0235 33.2-11.7 36.4-21.1 0.752-2.19-1.86-6.06-1.94-9.19-0.144-5.21 2.93-14.1 2.39-15.5s-3.65-2.06-4.68-1.59-5.21 12.5-5.21 12.5l-1.94-0.884-3.45 0.884 1.41 6.54-2.3 2.39-1.94-6.1-3.89 1.33-0.354 3.18-1.68-0.177-1.68-3.45-3.18 0.442-2.3 6.72-2.39-0.442-2.21-4.86-4.33-1.33-1.41 4.77-2.92-0.442-1.41-4.86-4.51 0.177-1.06 3.18-1.41-0.884-1.68-5.57-5.3 0.884-0.354 5.39-1.59-0.265-0.795-8.57-3.8-0.177 1.24 8.31-3.01-4.77s-2.48-10.1-3.31-15.5c-0.111-0.731-1.98-0.492-2.86-0.126-1.16 0.481-2.82 1.34-2.54 2.78 0.452 2.26 3.62 10.5 3.75 12.6s-3.26 6.03-2.92 8.75z"/>
 </g>
 <g fill="#fbfbfb" stroke="#000" stroke-width="1px">
  <path d="m67.9 97.1c2.4-4.36 9.18-4.48 14.1-4.77 4.06-0.237 14.1 2.22 19.6 4.95 3.86 1.89 4.98 6.82 2.65 9.19-2.28 2.32-3.89 8.51-7.07 11.3-2.6 2.29-6.82 2.01-10.3 1.59-3.17-0.388-5.65-3.55-8.84-3.71-2.4-0.119-5.42 4.02-6.89 2.12-1.8-2.31-0.205-6.51-0.707-9.72-0.58-3.71-4.47-7.67-2.65-11z"/>
  <path d="m122 102c2.06-3.69 11.8-5.75 17.3-7.78 3.18-1.16 6.85 0.177 10.5 1.49 2.75 0.984 5.97 1.8 6.44 2.4 0.647 0.812 0.362 4.38 0.797 7.36 0.508 3.48 1.61 6.46 0.44 8.2-2.16 3.19-10.1 7.83-16.1 7.78-4.69-0.0443-9.21-3.07-12.6-6.36-3.51-3.46-9.3-8.78-6.89-13.1z"/>
  <path d="m114 112c2.25-0.23 4.3 6.35 6.79 9.3 1.64 1.94 3.31 2.8 5.01 5.68 1.55 2.63 0.192 7.63-1.5 8.52-1.44 0.758-5.6-1.44-6.6-2.56-1.59-1.76-0.862-6.48-3-6.44-2.6 0.0487-0.309 5.91-2.22 7.84-1.52 1.55-4.21 2.63-6.24 1.86-1.68-0.636-2.76-2.78-2.86-4.57-0.137-2.56 2.89-8.27 4.48-11.9 0.864-1.96 3.22-7.44 6.12-7.74z"/>
 </g>
</svg>
