<?xml version="1.0" encoding="UTF-8" standalone="no"?>
<!-- Created with Inkscape (http://www.inkscape.org/) -->

<svg
            xmlns:dc="http://purl.org/dc/elements/1.1/"
            xmlns:cc="http://creativecommons.org/ns#"
            xmlns:rdf="http://www.w3.org/1999/02/22-rdf-syntax-ns#"
            xmlns:svg="http://www.w3.org/2000/svg"
            xmlns="http://www.w3.org/2000/svg"
            xmlns:sodipodi="http://sodipodi.sourceforge.net/DTD/sodipodi-0.dtd"
            xmlns:inkscape="http://www.inkscape.org/namespaces/inkscape"
            version="1.1"
            id="svg907"
            width="226"
            height="226"
            viewBox="0 0 226 226"
            sodipodi:docname="jollyroger.svg"
            inkscape:version="0.92.3 (2405546, 2018-03-11)">
           <metadata
                       id="metadata913">
                      <rdf:RDF>
                                 <cc:Work
                                             rdf:about="">
                                            <dc:format>image/svg+xml</dc:format>
                                            <dc:type
                                                        rdf:resource="http://purl.org/dc/dcmitype/StillImage" />
                                            <dc:title></dc:title>
                                 </cc:Work>
                      </rdf:RDF>
           </metadata>
           <defs
                       id="defs911" />
           <sodipodi:namedview
                       pagecolor="#ffffff"
                       bordercolor="#666666"
                       borderopacity="1"
                       objecttolerance="10"
                       gridtolerance="10"
                       guidetolerance="10"
                       inkscape:pageopacity="0"
                       inkscape:pageshadow="2"
                       inkscape:window-width="1361"
                       inkscape:window-height="974"
                       id="namedview909"
                       showgrid="false"
                       inkscape:zoom="4"
                       inkscape:cx="9e+01"
                       inkscape:cy="8e+01"
                       inkscape:window-x="161"
                       inkscape:window-y="75"
                       inkscape:window-maximized="0"
                       inkscape:current-layer="svg907" />
           <path
                       style="fill:#767676;stroke:#000000;stroke-width:1px;stroke-linecap:butt;stroke-linejoin:miter;stroke-opacity:1;fill-opacity:1"
                       d="M 51.265241,169.0779 191.27238,99.427887 c 0,0 17.67767,4.596193 21.92031,0.707103 4.24264,-3.889084 6.01041,-10.606598 3.18198,-13.788579 -2.82842,-3.18198 -5.3033,1.06066 -10.6066,-3.535534 -5.3033,-4.596194 -1.06066,-4.596194 -6.0104,-8.838834 -4.94975,-4.242641 -8.83884,-2.121321 -12.02082,0.353553 -3.18198,2.474874 0,8.485281 -2.82843,10.960155 C 182.08,87.760625 43.487067,157.7642 43.487067,157.7642 c 0,0 -16.617009,2.12132 -22.273864,6.71751 -5.656854,4.59619 1.414214,7.07107 4.596194,11.66726 3.181981,4.5962 1.767767,6.01041 6.010408,8.83884 4.242641,2.82842 5.656854,1.76776 9.899495,-1.76777 4.242641,-3.53553 5.656854,-11.31371 9.545941,-14.14214 z"
                       id="path1804"
                       inkscape:connector-curvature="0" />
           <path
                       style="fill:#767676;stroke:#000000;stroke-width:1px;stroke-linecap:butt;stroke-linejoin:miter;stroke-opacity:1;fill-opacity:1"
                       d="m 41.365747,86.346411 c 0,0 126.572113,66.114489 132.582523,68.942909 6.01041,2.82843 15.20279,-2.47487 19.79899,-0.35355 4.59619,2.12132 5.65685,6.71751 3.88908,10.25305 -1.76776,3.53553 -7.42462,14.14213 -9.89949,18.73833 -2.47487,4.59619 -4.59619,3.88908 -10.6066,0.7071 -6.01041,-3.18198 -4.24264,-13.78858 -6.36396,-14.84924 -2.12132,-1.06066 -126.92567,-65.76093 -131.521864,-68.2358 -4.596194,-2.474877 -16.263456,4.94974 -25.10229,0.7071 C 5.3033008,98.013673 8.4852813,90.942605 8.4852813,89.174838 c 0,-1.767767 2.4748737,-2.474873 4.2426407,-8.131728 1.767767,-5.656854 -2.12132,-7.424621 1.414214,-11.313708 3.535533,-3.889087 6.717514,-2.828427 10.960155,-0.353553 4.24264,2.474873 13.435028,15.202795 16.263456,16.970562 z"
                       id="path1806"
                       inkscape:connector-curvature="0" />
           <path
                       style="fill:#767676;fill-opacity:1;stroke:#000000;stroke-width:1px;stroke-linecap:butt;stroke-linejoin:miter;stroke-opacity:1"
                       d="m 108.89,20.939 c 17.87,-0.508 44.55,7.071 51.62,14.496 7.07,7.424 15.91,17.677 17.33,45.255 1.41,27.58 -5.02,22.17 -9.55,35 -4.12,11.69 2.15,16.28 1.06,22.28 -2.14,11.76 -19.76,8.77 -24.04,10.25 -2.32,0.8 -4.24,6.01 -4.24,6.01 l -7.07,2.12 c 0,0 -1.1,2.93 -0.62,8.75 -0.68,-0.27 -2.32,1.26 -2.97,0.89 -3.53,-1.99 -6.31,-5.75 -6.31,-5.75 l -0.36,8.13 -7.77,-0.35 -0.71,-4.25 -1.42,4.6 -5.3,-0.35 -2.12,-4.95 -4.6,2.47 -3.53,-1.06 -1.063,-10.96 -3.535,8.84 -4.597,-1.77 -1.414,-5.3 -1.414,2.83 -3.182,-2.48 -1.414,-9.19 c 0,0 -5.866,-3.86 -9.193,-3.89 -2.538,0 -4.584,3.34 -7.071,2.83 -3.428,-0.7 -6.342,-4.1 -7.424,-7.42 -1.402,-4.32 2.839,-8.96 2.121,-13.44 -2.719,-16.97 -15.246,-18.25 -15.203,-49.497 0.02,-12.345 2.372,-25.289 11.582,-34.024 9.21,-8.734 30.973,-19.46 52.407,-20.07 z"
                       id="path1808"
                       inkscape:connector-curvature="0"
                       sodipodi:nodetypes="sssssscccsccccccccccccccccssssszs" />
           <path
                       style="fill:#767676;fill-opacity:1;stroke:#000000;stroke-width:1px;stroke-linecap:butt;stroke-linejoin:miter;stroke-opacity:1"
                       d="m 73.715882,177.4748 c 0.340164,2.72033 20.984284,25.07391 39.156038,25.0139 7.11199,-0.0235 33.18192,-11.71013 36.416,-21.12482 0.75175,-2.18842 -1.85782,-6.06165 -1.94454,-9.19238 -0.14446,-5.21499 2.92927,-14.12353 2.38648,-15.46796 -0.54279,-1.34443 -3.64797,-2.0598 -4.68458,-1.59099 -1.03661,0.46881 -5.21491,12.46275 -5.21491,12.46275 l -1.94455,-0.88388 -3.44714,0.88388 1.41421,6.54074 -2.2981,2.38649 -1.94454,-6.0988 -3.88909,1.32582 -0.35355,3.18199 -1.67938,-0.17678 -1.67938,-3.44715 -3.18198,0.44194 -2.2981,6.71752 -2.38648,-0.44194 -2.20971,-4.86136 -4.33103,-1.32583 -1.41421,4.77297 -2.91682,-0.44194 -1.41421,-4.86136 -4.507807,0.17678 -1.060661,3.18198 -1.414213,-0.88388 -1.679379,-5.56847 -5.303301,0.88388 -0.353553,5.39169 -1.59099,-0.26516 -0.795495,-8.57367 -3.800699,-0.17678 1.237436,8.30851 -3.005203,-4.77297 c 0,0 -2.478356,-10.07815 -3.308821,-15.53414 -0.111252,-0.73091 -1.975596,-0.49151 -2.855645,-0.12632 -1.158072,0.48056 -2.823268,1.34251 -2.536044,2.77797 0.452172,2.25982 3.619924,10.53014 3.750762,12.61732 0.130838,2.08718 -3.256979,6.03012 -2.916815,8.75045 z"
                       id="path1810"
                       inkscape:connector-curvature="0"
                       sodipodi:nodetypes="zssazzcccccccccccccccccccccccccccccsaszz" />
           <path
                       style="fill:#fbfbfb;stroke:#000000;stroke-width:1px;stroke-linecap:butt;stroke-linejoin:miter;stroke-opacity:1;fill-opacity:1"
                       d="m 67.882251,97.12979 c 2.402564,-4.356737 9.175289,-4.483298 14.142135,-4.772971 4.055982,-0.23655 14.06522,2.22226 19.622214,4.949747 3.85592,1.892563 4.98165,6.817394 2.65165,9.192384 -2.27677,2.32074 -3.88896,8.51156 -7.071068,11.31371 -2.595638,2.28571 -6.820104,2.01135 -10.253048,1.59099 -3.171901,-0.38839 -5.647168,-3.55399 -8.838835,-3.71231 -2.40147,-0.11913 -5.415692,4.01737 -6.894291,2.12132 -1.803771,-2.31303 -0.205496,-6.5122 -0.707107,-9.72272 -0.580233,-3.71373 -4.466766,-7.66867 -2.65165,-10.96015 z"
                       id="path1812"
                       inkscape:connector-curvature="0"
                       sodipodi:nodetypes="assssaasaa" />
           <path
                       style="fill:#fbfbfb;stroke:#000000;stroke-width:1px;stroke-linecap:butt;stroke-linejoin:miter;stroke-opacity:1;fill-opacity:1"
                       d="m 122.1527,102.25631 c 2.06245,-3.686526 11.75134,-5.745426 17.32411,-7.778171 3.18128,-1.160418 6.8529,0.177275 10.52822,1.492911 2.74884,0.983989 5.96709,1.799859 6.44234,2.396176 0.64678,0.811552 0.36239,4.383174 0.79744,7.359744 0.50793,3.47521 1.6114,6.46023 0.44,8.19661 -2.15537,3.19494 -10.1308,7.83443 -16.08668,7.77817 -4.69057,-0.0443 -9.20821,-3.07333 -12.55114,-6.36396 -3.51271,-3.45775 -9.30084,-8.77989 -6.89429,-13.08148 z"
                       id="path1814"
                       inkscape:connector-curvature="0"
                       sodipodi:nodetypes="sssssscss" />
           <path
                       style="fill:#fbfbfb;stroke:#000000;stroke-width:1px;stroke-linecap:butt;stroke-linejoin:miter;stroke-opacity:1;fill-opacity:1"
                       d="m 114.02097,112.33259 c 2.25453,-0.22954 4.30314,6.34801 6.79074,9.29594 1.63807,1.9412 3.30894,2.80109 5.01132,5.6783 1.55395,2.62636 0.19225,7.62522 -1.49724,8.51561 -1.43834,0.75803 -5.59805,-1.44495 -6.60231,-2.5579 -1.5853,-1.75687 -0.86201,-6.47627 -2.99541,-6.43627 -2.59801,0.0487 -0.30912,5.90723 -2.21599,7.8416 -1.52324,1.54521 -4.20827,2.62647 -6.23804,1.85968 -1.6823,-0.63552 -2.76321,-2.779 -2.85967,-4.57475 -0.13735,-2.55703 2.88573,-8.26669 4.48191,-11.88509 0.86417,-1.95898 3.22184,-7.44157 6.12469,-7.73712 z"
                       id="path1816"
                       inkscape:connector-curvature="0"
                       sodipodi:nodetypes="ssssssaasss" />
</svg>
