<?xml version="1.0" encoding="UTF-8"?>
<!-- Created with Inkscape (http://www.inkscape.org/) -->
<svg width="226" height="226" version="1.1" viewBox="0 0 226 226" xmlns="http://www.w3.org/2000/svg" xmlns:cc="http://creativecommons.org/ns#" xmlns:dc="http://purl.org/dc/elements/1.1/" xmlns:rdf="http://www.w3.org/1999/02/22-rdf-syntax-ns#">
 <metadata>
  <rdf:RDF>
   <cc:Work rdf:about="">
    <dc:format>image/svg+xml</dc:format>
    <dc:type rdf:resource="http://purl.org/dc/dcmitype/StillImage"/>
    <dc:title/>
   </cc:Work>
  </rdf:RDF>
 </metadata>
 <path d="m116 9c82 0.2 78 32 78 107 0 75 1 103-79 103-80 0-79-22-80-103-1-82-1-107 81-107z" stroke="#000" stroke-width="1px"/>
 <path d="m115 32c55 0.1 51 25 51 83 0 58 7 80-49 80-56 0-54-19-55-81-0.8-63-2-82 53-81z" fill="#fff" stroke="#000" stroke-width=".8px"/>
 <g stroke="#000" stroke-width="1px">
  <circle cx="90" cy="83" r="18" fill-rule="evenodd"/>
  <circle cx="136" cy="83" r="18" fill-rule="evenodd"/>
  <path d="m115 146c10 0.2 18-8 19-14 2-6 5-11 11-11s10 5 10 13-11 33-40 33c-29 0-41-25-41-33s6-12 11-12c5 0 10 2 12 9 2 6 10 14 19 14z"/>
 </g>
</svg>
