<?xml version="1.0" encoding="UTF-8" standalone="no"?>
<!-- Created with Inkscape (http://www.inkscape.org/) -->

<svg
   xmlns:dc="http://purl.org/dc/elements/1.1/"
   xmlns:cc="http://creativecommons.org/ns#"
   xmlns:rdf="http://www.w3.org/1999/02/22-rdf-syntax-ns#"
   xmlns:svg="http://www.w3.org/2000/svg"
   xmlns="http://www.w3.org/2000/svg"
   xmlns:sodipodi="http://sodipodi.sourceforge.net/DTD/sodipodi-0.dtd"
   xmlns:inkscape="http://www.inkscape.org/namespaces/inkscape"
   version="1.1"
   id="svg907"
   width="226"
   height="226"
   viewBox="0 0 226 226"
   sodipodi:docname="smiley.svg"
   inkscape:version="0.92.3 (2405546, 2018-03-11)">
  <metadata
     id="metadata913">
    <rdf:RDF>
      <cc:Work
         rdf:about="">
        <dc:format>image/svg+xml</dc:format>
        <dc:type
           rdf:resource="http://purl.org/dc/dcmitype/StillImage" />
        <dc:title></dc:title>
      </cc:Work>
    </rdf:RDF>
  </metadata>
  <defs
     id="defs911" />
  <sodipodi:namedview
     pagecolor="#ffffff"
     bordercolor="#666666"
     borderopacity="1"
     objecttolerance="10"
     gridtolerance="10"
     guidetolerance="10"
     inkscape:pageopacity="0"
     inkscape:pageshadow="2"
     inkscape:window-width="1920"
     inkscape:window-height="1023"
     id="namedview909"
     showgrid="false"
     inkscape:zoom="2.8284271"
     inkscape:cx="103.68272"
     inkscape:cy="104.53984"
     inkscape:window-x="0"
     inkscape:window-y="0"
     inkscape:window-maximized="1"
     inkscape:current-layer="svg907" />
  <path
     style="fill:#000000;stroke:#000000;stroke-width:1px;stroke-linecap:butt;stroke-linejoin:miter;stroke-opacity:1;fill-opacity:1"
     d="m 116.1,8.677 c 82,0.161 78.4,32.433 78.4,107.323 0,74.9 1.4,103.2 -78.6,103.2 C 35.92,219.2 36.55,197.6 35.47,115.8 34.39,34.11 34.1,8.516 116.1,8.677 Z"
     id="path3504"
     inkscape:connector-curvature="0"
     sodipodi:nodetypes="zzzzz" />
  <path
     style="fill:#ffffff;fill-opacity:1;stroke:#000000;stroke-width:0.7676px;stroke-linecap:butt;stroke-linejoin:miter;stroke-opacity:1"
     d="m 115.1,32.24 c 55.3,0.12 50.7,25.26 50.7,82.56 0,57.6 7.4,80.3 -49,80.3 -56.42,0 -53.77132,-18.65355 -54.61132,-81.45355 C 61.33868,51.066447 59.91,32.13 115.1,32.24 Z"
     id="path3504-5"
     inkscape:connector-curvature="0"
     sodipodi:nodetypes="zzzzz" />
  <circle
     style="opacity:1;vector-effect:none;fill:#000000;fill-opacity:1;fill-rule:evenodd;stroke:#000000;stroke-width:1px;stroke-linecap:butt;stroke-linejoin:miter;stroke-miterlimit:4;stroke-dasharray:none;stroke-dashoffset:0;stroke-opacity:1"
     id="path3525"
     cx="89.8"
     cy="82.81"
     r="18.38" />
  <circle
     style="opacity:1;vector-effect:none;fill:#000000;fill-opacity:1;fill-rule:evenodd;stroke:#000000;stroke-width:1px;stroke-linecap:butt;stroke-linejoin:miter;stroke-miterlimit:4;stroke-dasharray:none;stroke-dashoffset:0;stroke-opacity:1"
     id="path3525-3"
     cx="136.1"
     cy="82.76"
     r="18.38" />
  <path
     style="fill:#000000;stroke:#000000;stroke-width:1px;stroke-linecap:butt;stroke-linejoin:miter;stroke-opacity:1;fill-opacity:1"
     d="m 114.9,146.2 c 9.6,0.2 17.7,-7.6 19.2,-13.5 1.6,-5.8 4.7,-11 11.2,-11 6.5,0 9.5,4.7 9.5,12.7 0,8 -11.3,32.9 -40.3,32.9 -28.99,0 -41.41,-24.8 -41.41,-32.6 0,-7.8 6.34,-11.6 10.96,-11.6 4.63,0 9.95,2.5 11.68,9 1.73,6.4 9.57,13.9 19.17,14.1 z"
     id="path3542"
     inkscape:connector-curvature="0"
     sodipodi:nodetypes="zzzzzzzzz" />
</svg>
